<svg width="24" height="24" viewBox="0 0 24 24" fill="none" xmlns="http://www.w3.org/2000/svg">
<path d="M12 2.03999C6.5 2.03999 2 6.52999 2 12.06C2 17.06 5.66 21.21 10.44 21.96V14.96H7.9V12.06H10.44V9.84999C10.44 7.33999 11.93 5.95999 14.22 5.95999C15.31 5.95999 16.45 6.14999 16.45 6.14999V8.61999H15.19C13.95 8.61999 13.56 9.38999 13.56 10.18V12.06H16.34L15.89 14.96H13.56V21.96C15.9164 21.5878 18.0622 20.3855 19.6099 18.5701C21.1576 16.7546 22.0053 14.4456 22 12.06C22 6.52999 17.5 2.03999 12 2.03999Z" fill="white"/>
</svg>
