<svg width="165" height="165" viewBox="0 0 165 165" fill="none" xmlns="http://www.w3.org/2000/svg">
<circle cx="82.5" cy="82.5" r="82.5" fill="#5CBFF8"/>
<path d="M134.876 82.7232C134.876 82.7232 144.659 72.6162 155.736 81.6721C156.99 82.6828 156.302 84.7042 154.685 84.7446C152.219 84.8255 149.106 85.2298 146.6 86.5235C141.061 89.4343 138.231 96.0645 138.231 96.0645C138.231 96.0645 138.716 103.746 134.714 111.185C129.418 121.009 117.37 129.701 103.625 128.326C89.879 126.952 89.5556 119.796 82.8849 116.076C77.9931 113.327 71.2012 114.621 65.5008 110.983C57.1726 105.646 52.9681 90.6876 55.2725 79.3677C57.5364 68.4116 69.1393 65.4199 67.2796 52.2808C66.0668 43.71 58.6684 41.0418 53.2915 40.2736C50.9871 39.9502 50.4211 36.8777 52.4829 35.8265C59.2749 32.2689 70.5139 31.7029 76.7398 40.0311C84.5425 50.4615 76.7398 61.6601 77.4271 72.5353C77.4675 73.1822 78.2761 73.4652 78.7208 72.98C96.7922 52.6851 129.296 66.5924 134.876 82.7232ZM85.351 98.6923C84.785 98.4902 84.2999 99.2179 84.7042 99.6626C88.3831 103.746 92.2238 113.691 101.361 111.71C112.721 109.244 111.831 95.4177 111.023 90.1216C110.942 89.6769 110.336 89.6768 110.255 90.0811C109.325 94.0835 106.455 102.654 98.7327 104.635C93.0728 106.131 90.1216 100.309 85.351 98.6923Z" fill="white"/>
<path d="M83.6531 123.394C82.7636 123.03 81.8742 123.96 82.3594 124.809C83.5722 126.992 85.351 130.267 84.5829 131.682C83.5722 133.582 78.1953 135.644 72.5353 137.867C70.5948 138.635 71.1608 141.546 73.2226 141.546H96.5092C99.42 141.546 100.997 138.15 99.0966 135.927C97.1965 133.703 94.8517 130.833 92.8303 129.094C89.313 126.143 85.8766 124.364 83.6531 123.394Z" fill="#FBE53F"/>
<path d="M31.9859 91.1727C32.6731 91.577 33.5626 91.011 33.4413 90.2024C32.9157 86.4022 32.3497 77.9527 37.1202 72.7779C43.1036 66.3094 54.4235 67.9265 58.7089 64.6114C58.7089 64.6114 65.3795 58.9919 61.4984 50.6232C58.1429 43.427 48.6827 42.861 48.6827 42.861C44.9633 46.0144 46.9038 49.1274 44.7612 51.1084C42.4163 53.2511 23.0512 50.502 17.27 64.854C11.9335 78.1548 26.7302 88.1406 31.9859 91.1727Z" fill="#FBE53F"/>
</svg>
