<svg width="534" height="190" viewBox="0 0 534 190" fill="none" xmlns="http://www.w3.org/2000/svg">
<path d="M146.967 95.5081C146.967 95.5081 156.751 85.4011 167.828 94.457C169.081 95.4677 168.394 97.4891 166.777 97.5295C164.311 97.6104 161.198 98.0147 158.691 99.3084C153.152 102.219 150.322 108.849 150.322 108.849C150.322 108.849 150.808 116.531 146.805 123.97C141.509 133.794 129.462 142.486 115.716 141.111C101.97 139.737 101.647 132.581 94.9763 128.861C90.0845 126.112 83.2926 127.406 77.5922 123.767C69.264 118.431 65.0595 103.472 67.3639 92.1526C69.6279 81.1965 81.2308 78.2049 79.3711 65.0657C78.1582 56.4949 70.7599 53.8267 65.3829 53.0585C63.0785 52.7351 62.5125 49.6626 64.5744 48.6114C71.3663 45.0538 82.6053 44.4878 88.8313 52.816C96.6339 63.2464 88.8313 74.445 89.5185 85.3202C89.559 85.9671 90.3675 86.2501 90.8122 85.7649C108.884 65.47 141.388 79.3773 146.967 95.5081ZM97.4425 111.477C96.8765 111.275 96.3913 112.003 96.7956 112.448C100.475 116.531 104.315 126.476 113.452 124.495C124.812 122.029 123.923 108.203 123.114 102.906C123.033 102.462 122.427 102.462 122.346 102.866C121.416 106.868 118.546 115.439 110.824 117.42C105.164 118.916 102.213 113.094 97.4425 111.477Z" fill="white"/>
<path d="M95.7444 136.179C94.855 135.815 93.9656 136.745 94.4507 137.594C95.6636 139.777 97.4424 143.052 96.6743 144.467C95.6636 146.367 90.2866 148.429 84.6267 150.652C82.6861 151.42 83.2521 154.331 85.314 154.331H108.601C111.511 154.331 113.088 150.935 111.188 148.712C109.288 146.488 106.943 143.618 104.922 141.879C101.404 138.928 97.968 137.149 95.7444 136.179Z" fill="#FBE53F"/>
<path d="M44.0773 103.958C44.7645 104.362 45.654 103.796 45.5327 102.987C45.0071 99.1871 44.4411 90.7376 49.2116 85.5628C55.195 79.0943 66.5149 80.7114 70.8003 77.3963C70.8003 77.3963 77.4709 71.7768 73.5898 63.4082C70.2343 56.2119 60.7741 55.6459 60.7741 55.6459C57.0547 58.7993 58.9952 61.9123 56.8526 63.8933C54.5077 66.036 35.1426 63.2869 29.3614 77.6389C24.0249 90.9397 38.8216 100.925 44.0773 103.958Z" fill="#FBE53F"/>
<path d="M94.5721 189.746C42.4602 189.746 0.0914307 147.377 0.0914307 95.2656C0.0914307 43.1536 42.4602 0.784912 94.5721 0.784912C146.684 0.784912 189.093 43.1536 189.093 95.2656C189.093 147.377 146.684 189.746 94.5721 189.746ZM94.5721 14.1262C49.8585 14.1262 13.4732 50.5116 13.4732 95.2251C13.4732 139.939 49.8585 176.324 94.5721 176.324C139.286 176.324 175.671 139.939 175.671 95.2251C175.671 50.5116 139.326 14.1262 94.5721 14.1262Z" fill="white"/>
<path d="M310.014 32.6018C303.505 24.9609 293.64 20.6755 283.008 20.6755H277.388H244.641L224.993 103.351H248.482L262.672 43.8004H279.935C292.751 44.2452 293.923 53.9479 292.791 60.8207C291.579 68.3808 287.131 78.2452 268.696 78.3261H260.772L254.91 103.028L261.581 102.987C288.021 102.421 313.369 87.5437 317.574 60.942C319.272 50.3902 316.563 40.3236 310.014 32.6018Z" fill="white"/>
<path d="M373.89 87.9076C360.104 103.675 339.365 108.081 327.519 97.7316C315.674 87.382 317.291 66.2381 331.036 50.4711C344.782 34.7041 365.562 30.2974 377.408 40.6471C389.253 50.9967 387.636 72.1406 373.89 87.9076ZM359.66 60.9824C356.264 57.9907 350.28 59.2844 346.318 63.8124C342.356 68.3404 341.871 74.445 345.308 77.4367C348.703 80.4284 354.687 79.1347 358.649 74.6067C362.611 70.0383 363.056 63.9741 359.66 60.9824Z" fill="white"/>
<path d="M518.704 87.9076C504.918 103.675 484.178 108.081 472.333 97.7316C460.487 87.382 462.105 66.2381 475.85 50.4711C489.596 34.7041 510.376 30.2974 522.221 40.6471C534.067 50.9967 532.49 72.1406 518.704 87.9076ZM504.473 60.9824C501.077 57.9907 495.094 59.2844 491.132 63.8124C487.17 68.3404 486.685 74.445 490.121 77.4367C493.558 80.4284 499.501 79.1347 503.463 74.6067C507.425 70.0383 507.869 63.9741 504.473 60.9824Z" fill="white"/>
<path d="M443.993 21.7671L440.556 36.2L432.632 69.5936H432.551C432.026 71.332 431.136 73.03 429.762 74.6067C425.8 79.1347 419.817 80.4284 416.421 77.4367C413.025 74.445 413.469 68.3808 417.431 63.8124C420.787 59.9717 425.517 58.5163 428.994 59.9313L434.856 35.1892C424.062 34.3807 411.529 39.7981 402.15 50.4711C388.364 66.2381 386.787 87.4224 398.632 97.7316C410.478 108.081 431.217 103.675 445.003 87.9076C449.936 82.2476 453.291 75.9004 455.03 69.5936H455.11L466.511 21.7671H443.993Z" fill="white"/>
<path d="M532.247 127.244H218.565C217.999 127.244 217.555 126.799 217.555 126.233V118.593C217.555 118.027 217.999 117.582 218.565 117.582H532.247C532.813 117.582 533.258 118.027 533.258 118.593V126.233C533.258 126.799 532.813 127.244 532.247 127.244Z" fill="#FBE53F"/>
<path d="M265.219 164.479L258.913 172.766H252.97L277.671 140.828H284.746L281.754 172.766H276.095L276.863 164.479H265.219ZM277.631 159.748C278.358 152.876 278.884 148.105 279.369 145.316H279.329C277.186 148.388 273.265 153.684 268.615 159.748H277.631Z" fill="white"/>
<path d="M308.114 149.075H313.571L303.06 172.807H297.602L308.114 149.075ZM312.52 139.049H317.978L315.472 144.628H310.014L312.52 139.049Z" fill="white"/>
<path d="M341.952 154.089C337.545 154.21 333.785 156.959 331.441 162.215L326.751 172.766H321.293L328.732 156.069C329.743 153.765 330.834 151.218 331.683 149.075H336.939C336.737 149.682 336.009 151.663 335.16 153.603C337.505 150.612 340.375 148.631 344.337 148.631L341.952 154.089Z" fill="white"/>
<path d="M350.361 172.766L365.279 139.049H370.737L355.819 172.766H350.361V172.766Z" fill="white"/>
<path d="M384.725 149.075H390.183L379.671 172.807H374.214L384.725 149.075ZM389.172 139.049H394.63L392.123 144.628H386.666L389.172 139.049Z" fill="white"/>
<path d="M405.788 155.059C406.677 153.037 407.526 151.056 408.335 149.075H413.672C413.429 149.763 412.62 151.784 412.337 152.391C413.874 150.733 416.542 148.59 420.625 148.59C425.234 148.59 427.336 151.339 424.264 158.293L417.836 172.766H412.418L418.806 158.293C420.18 155.301 419.978 153.199 416.987 153.199C413.469 153.199 410.72 156.11 408.739 160.638L403.362 172.766H397.905L405.788 155.059Z" fill="white"/>
<path d="M445.206 162.012C444.963 162.7 444.761 163.104 444.64 163.71C443.952 166.743 444.72 168.926 447.672 168.926C450.542 168.926 452.159 167.389 453.453 165.691H459.073C456.849 169.289 452.968 173.211 446.216 173.211C439.95 173.211 437.888 169.249 439.222 163.549C440.678 157.201 446.135 148.55 455.353 148.55C462.145 148.55 463.479 152.795 462.388 157.444C461.983 159.182 461.417 160.597 460.73 161.972H445.206V162.012ZM456.889 158.293C457.091 157.848 457.172 157.404 457.253 157.04C457.819 154.533 457.132 152.754 454.181 152.754C451.027 152.754 448.521 154.816 446.782 158.293H456.889V158.293Z" fill="white"/>
<path d="M480.014 165.489C479.691 167.713 480.782 169.087 483.814 169.087C486.483 169.087 487.979 167.834 488.383 166.055C488.787 164.317 487.655 163.468 484.785 162.417C479.772 160.719 478.559 158.819 479.206 155.948C480.136 151.825 484.097 148.631 490.162 148.631C496.63 148.631 498.571 151.986 497.56 155.706H492.021C492.264 154.291 491.941 152.714 488.868 152.714C486.968 152.714 485.189 153.482 484.785 155.301C484.461 156.716 485.634 157.282 488.423 158.333C493.356 160.072 494.851 162.215 494.124 165.489C492.911 170.704 487.817 173.292 482.157 173.292C475.931 173.292 473.182 170.341 474.476 165.53H480.014V165.489Z" fill="white"/>
</svg>
